REM DIRINDEX 1\2,1\3,1\4,1\5
REM DIRNAME folder01,folder02,folder03,folder04,folder05
TITLE ""
FILE "1800_077.mp3" MP3
  TRACK 01 AUDIO
    TITLE "2:cjc044_1977"
    INDEX 01 00:00:00
  TRACK 02 AUDIO
    TITLE "0:"
    INDEX 01 00:01:05
  TRACK 03 AUDIO
    TITLE "3:cjc044_1978"
    INDEX 01 00:01:60
  TRACK 04 AUDIO
    TITLE "0:"
    INDEX 01 00:02:51
  TRACK 05 AUDIO
    TITLE "4:cjc044_1979"
    INDEX 01 00:03:35
  TRACK 06 AUDIO
    TITLE "0:"
    INDEX 01 00:04:50
  TRACK 07 AUDIO
    TITLE "5:cjc044_1980"
    INDEX 01 00:05:26
  TRACK 08 AUDIO
    TITLE "0:"
    INDEX 01 00:08:21
  TRACK 09 AUDIO
    TITLE "2:cjc044_1981"
    INDEX 01 00:10:04
  TRACK 10 AUDIO
    TITLE "0:"
    INDEX 01 00:11:23
  TRACK 11 AUDIO
    TITLE "3:cjc044_1982"
    INDEX 01 00:12:11
  TRACK 12 AUDIO
    TITLE "0:"
    INDEX 01 00:13:22
  TRACK 13 AUDIO
    TITLE "4:cjc044_1983"
    INDEX 01 00:14:06
  TRACK 14 AUDIO
    TITLE "0:"
    INDEX 01 00:15:28
  TRACK 15 AUDIO
    TITLE "5:cjc044_1984"
    INDEX 01 00:15:74
  TRACK 16 AUDIO
    TITLE "0:"
    INDEX 01 00:19:22
  TRACK 17 AUDIO
    TITLE "2:cjc044_1985"
    INDEX 01 00:21:02
  TRACK 18 AUDIO
    TITLE "0:"
    INDEX 01 00:22:21
  TRACK 19 AUDIO
    TITLE "3:cjc044_1986"
    INDEX 01 00:23:01
  TRACK 20 AUDIO
    TITLE "0:"
    INDEX 01 00:24:00
  TRACK 21 AUDIO
    TITLE "4:cjc044_1987"
    INDEX 01 00:24:57
  TRACK 22 AUDIO
    TITLE "0:"
    INDEX 01 00:26:01
  TRACK 23 AUDIO
    TITLE "5:cjc044_1988"
    INDEX 01 00:26:48
  TRACK 24 AUDIO
    TITLE "0:"
    INDEX 01 00:29:60
  TRACK 25 AUDIO
    TITLE "2:cjc044_1989"
    INDEX 01 00:31:45
  TRACK 26 AUDIO
    TITLE "0:"
    INDEX 01 00:32:70
  TRACK 27 AUDIO
    TITLE "3:cjc044_1990"
    INDEX 01 00:33:52
  TRACK 28 AUDIO
    TITLE "0:"
    INDEX 01 00:34:45
  TRACK 29 AUDIO
    TITLE "4:cjc044_1991"
    INDEX 01 00:35:31
  TRACK 30 AUDIO
    TITLE "0:"
    INDEX 01 00:36:58
  TRACK 31 AUDIO
    TITLE "5:cjc044_1992"
    INDEX 01 00:37:42
  TRACK 32 AUDIO
    TITLE "0:"
    INDEX 01 00:40:64
  TRACK 33 AUDIO
    TITLE "2:cjc044_1993"
    INDEX 01 00:42:47
  TRACK 34 AUDIO
    TITLE "0:"
    INDEX 01 00:43:68
  TRACK 35 AUDIO
    TITLE "3:cjc044_1994"
    INDEX 01 00:44:56
  TRACK 36 AUDIO
    TITLE "0:"
    INDEX 01 00:46:68
  TRACK 37 AUDIO
    TITLE "4:cjc044_1995"
    INDEX 01 00:47:54
  TRACK 38 AUDIO
    TITLE "0:"
    INDEX 01 00:48:71
  TRACK 39 AUDIO
    TITLE "5:cjc044_1996"
    INDEX 01 00:49:43
  TRACK 40 AUDIO
    TITLE "0:"
    INDEX 01 00:52:39
  TRACK 41 AUDIO
    TITLE "2:cjc044_1997"
    INDEX 01 00:54:25
  TRACK 42 AUDIO
    TITLE "0:"
    INDEX 01 00:55:40
  TRACK 43 AUDIO
    TITLE "3:cjc044_1998"
    INDEX 01 00:56:25
  TRACK 44 AUDIO
    TITLE "0:"
    INDEX 01 00:57:21
  TRACK 45 AUDIO
    TITLE "4:cjc044_1999"
    INDEX 01 00:58:03
  TRACK 46 AUDIO
    TITLE "0:"
    INDEX 01 00:59:18
  TRACK 47 AUDIO
    TITLE "5:cjc044_2000"
    INDEX 01 00:59:71
  TRACK 48 AUDIO
    TITLE "0:"
    INDEX 01 01:03:04
  TRACK 49 AUDIO
    TITLE "2:cjc044_2001"
    INDEX 01 01:04:68
  TRACK 50 AUDIO
    TITLE "0:"
    INDEX 01 01:06:02
  TRACK 51 AUDIO
    TITLE "3:cjc044_2002"
    INDEX 01 01:06:61
  TRACK 52 AUDIO
    TITLE "0:"
    INDEX 01 01:07:63
  TRACK 53 AUDIO
    TITLE "4:cjc044_2003"
    INDEX 01 01:08:46
  TRACK 54 AUDIO
    TITLE "0:"
    INDEX 01 01:09:52
  TRACK 55 AUDIO
    TITLE "5:cjc044_2004"
    INDEX 01 01:10:26
  TRACK 56 AUDIO
    TITLE "0:"
    INDEX 01 01:13:44
  TRACK 57 AUDIO
    TITLE "2:cjc044_2005"
    INDEX 01 01:15:31
  TRACK 58 AUDIO
    TITLE "0:"
    INDEX 01 01:16:40
  TRACK 59 AUDIO
    TITLE "3:cjc044_2006"
    INDEX 01 01:17:26
  TRACK 60 AUDIO
    TITLE "0:"
    INDEX 01 01:20:20
  TRACK 61 AUDIO
    TITLE "4:cjc044_2007"
    INDEX 01 01:21:08
  TRACK 62 AUDIO
    TITLE "0:"
    INDEX 01 01:22:21
  TRACK 63 AUDIO
    TITLE "5:cjc044_2008"
    INDEX 01 01:22:68
  TRACK 64 AUDIO
    TITLE "0:"
    INDEX 01 01:25:45
  TRACK 65 AUDIO
    TITLE "2:cjc044_2009"
    INDEX 01 01:27:38
  TRACK 66 AUDIO
    TITLE "0:"
    INDEX 01 01:28:53
  TRACK 67 AUDIO
    TITLE "3:cjc044_2010"
    INDEX 01 01:29:39
  TRACK 68 AUDIO
    TITLE "0:"
    INDEX 01 01:30:42
  TRACK 69 AUDIO
    TITLE "4:cjc044_2011"
    INDEX 01 01:31:32
  TRACK 70 AUDIO
    TITLE "0:"
    INDEX 01 01:32:47
  TRACK 71 AUDIO
    TITLE "5:cjc044_2012"
    INDEX 01 01:33:29
  TRACK 72 AUDIO
    TITLE "0:"
    INDEX 01 01:36:70
